#!OML:ASF C:\ViconDB\ViconDB\414\Spring2016\042216\male.ASF
:FULLY-SPECIFIED
:DEGREES
607
root 44.9905 17.8016 12.1858 -41.5205 88.0934 -43.0011
lowerback -2.57233 -1.63635 3.9728
upperback -1.42187 -2.25236 -0.702651
thorax -0.201628 -1.14877 -2.99752
lowerneck -4.37504 0.453487 -4.72728
upperneck 8.84988 0.619763 4.64584
head 3.65167 0.36477 2.42658
rclavicle 3.63341e-014 -7.95139e-015
rhumerus -32.4979 -6.88031 -91.9268
rradius 25.2072
rwrist 34.3136
rhand 15.0761 -17.9803
rfingers 7.12502
rthumb 39.9232 -43.2295
lclavicle 3.63341e-014 -7.95139e-015
lhumerus -37.7436 13.8778 85.579
lradius 31.7331
lwrist -18.6702
lhand -7.8229 11.4582
lfingers 7.12502
lthumb 18.0792 40.638
rfemur -8.34694 5.08615 22.3103
rtibia 23.6124
rfoot -17.5363 -5.74645
rtoes -8.15392
lfemur -7.26983 -2.06896 -19.1956
ltibia 25.1832
lfoot -26.347 9.70319
ltoes -10.2941
608
root 44.9953 17.802 12.1868 -42.0168 88.1383 -43.5065
lowerback -2.58261 -1.65767 3.93212
upperback -1.42917 -2.28007 -0.687647
thorax -0.203335 -1.16239 -2.95993
lowerneck -4.37227 0.495709 -4.73479
upperneck 8.86668 0.680598 4.60358
head 3.65342 0.392902 2.41626
rclavicle 2.31336e-014 -7.35503e-015
rhumerus -32.558 -6.80647 -91.9023
rradius 25.2849
rwrist 34.0866
rhand 14.9577 -18.0048
rfingers 7.12502
rthumb 39.8118 -43.2874
lclavicle 2.31336e-014 -7.35503e-015
lhumerus -37.7083 13.7908 85.7785
lradius 31.8263
lwrist -17.752
lhand -7.64896 11.8605
lfingers 7.12502
lthumb 18.2466 41.0246
rfemur -8.25779 5.04465 22.301
rtibia 23.4515
rfoot -17.4432 -5.80045
rtoes -8.25234
lfemur -7.34587 -2.07715 -19.2126
ltibia 25.325
lfoot -26.4547 9.67666
ltoes -10.174
609
root 44.9978 17.7946 12.1866 -43.4524 88.1456 -44.937
lowerback -2.51749 -1.6678 3.96998
upperback -1.47402 -2.29051 -0.677609
thorax -0.287898 -1.17015 -2.96784
lowerneck -4.29535 0.52844 -4.76141
upperneck 8.86769 0.722946 4.61949
head 3.63662 0.41326 2.42723
rclavicle -2.27608e-014 6.55989e-015
rhumerus -32.6836 -6.80665 -91.8651
rradius 25.4232
rwrist 33.9545
rhand 14.9472 -18.0686
rfingers 7.12502
rthumb 39.8019 -43.3541
lclavicle -2.27608e-014 6.55989e-015
lhumerus -37.7614 13.4565 86.0838
lradius 32.0374
lwrist -16.5751
lhand -7.46943 12.0732
lfingers 7.12502
lthumb 18.4193 41.2212
rfemur -8.22358 5.17261 22.344
rtibia 23.4339
rfoot -17.4714 -5.96534
rtoes -8.2945
lfemur -7.29682 -1.97345 -19.1757
ltibia 25.3373
lfoot -26.509 9.58244
ltoes -10.2721
610
root 45.0022 17.7958 12.1863 -44.3647 88.1508 -45.851
lowerback -2.54193 -1.69245 3.98575
upperback -1.46232 -2.32498 -0.669961
thorax -0.265315 -1.18682 -2.97042
lowerneck -4.32475 0.582825 -4.72512
upperneck 8.88806 0.79779 4.57705
head 3.64492 0.45005 2.40988
rclavicle 2.70906e-014 1.39149e-014
rhumerus -32.6914 -6.83005 -91.8394
rradius 25.5334
rwrist 33.8679
rhand 14.9515 -18.0318
rfingers 7.12502
rthumb 39.806 -43.3161
lclavicle 2.70906e-014 1.39149e-014
lhumerus -37.7603 13.2367 86.3293
lradius 32.2822
lwrist -15.5109
lhand -7.49031 12.2612
lfingers 7.12502
lthumb 18.3992 41.4111
rfemur -8.2224 5.05875 22.3621
rtibia 23.4719
rfoot -17.5169 -5.89893
rtoes -8.29029
lfemur -7.29159 -1.88647 -19.1358
ltibia 25.3161
lfoot -26.529 9.37139
ltoes -10.1267
611
root 45.0068 17.7962 12.1872 -44.7796 88.1644 -46.2595
lowerback -2.57483 -1.70907 3.96
upperback -1.43896 -2.34858 -0.66383
thorax -0.223433 -1.19724 -2.95171
lowerneck -4.33503 0.629614 -4.68684
upperneck 8.8788 0.862898 4.52214
head 3.63965 0.481338 2.38658
rclavicle 1.94623e-014 -1.39149e-015
rhumerus -32.7041 -6.86692 -91.7839
rradius 25.62
rwrist 34.1442
rhand 14.8598 -17.7477
rfingers 7.12502
rthumb 39.7197 -43.0577
lclavicle 1.94623e-014 -1.39149e-015
lhumerus -37.755 12.9779 86.6169
lradius 32.5412
lwrist -14.3617
lhand -7.4678 12.3015
lfingers 7.12502
lthumb 18.4209 41.4493
rfemur -8.21331 5.02441 22.3747
rtibia 23.5164
rfoot -17.5451 -5.92964
rtoes -8.3338
lfemur -7.27798 -1.80237 -19.1254
ltibia 25.2946
lfoot -26.5421 9.2958
ltoes -10.2084
612
root 45.0119 17.7937 12.1899 -44.3976 88.1526 -45.898
lowerback -2.63639 -1.72719 3.90038
upperback -1.42728 -2.37415 -0.64641
thorax -0.175726 -1.20836 -2.90323
lowerneck -4.36487 0.696256 -4.65986
upperneck 8.90118 0.955158 4.47715
head 3.64797 0.526312 2.3709
rclavicle -2.16489e-014 -5.56597e-015
rhumerus -32.694 -6.89246 -91.7642
rradius 25.7363
rwrist 34.1196
rhand 14.8958 -17.6788
rfingers 7.12502
rthumb 39.7535 -42.9788
lclavicle -2.16489e-014 -5.56597e-015
lhumerus -37.7928 12.998 86.7019
lradius 32.7113
lwrist -14.0499
lhand -7.10269 12.4741
lfingers 7.12502
lthumb 18.7721 41.5883
rfemur -8.22061 5.19338 22.3889
rtibia 23.5332
rfoot -17.5621 -6.0807
rtoes -8.39485
lfemur -7.26129 -1.77868 -19.121
ltibia 25.2905
lfoot -26.5769 9.33381
ltoes -10.3195
613
root 45.016 17.7926 12.1905 -45.4619 88.1387 -46.9605
lowerback -2.66094 -1.7548 3.92591
upperback -1.41271 -2.4129 -0.637655
thorax -0.150812 -1.22714 -2.9104
lowerneck -4.35083 0.762024 -4.6039
upperneck 8.87349 1.04574 4.399
head 3.63014 0.569662 2.33665
rclavicle 4.75033e-014 6.55989e-015
rhumerus -32.6614 -6.73632 -91.8405
rradius 25.8631
rwrist 33.7234
rhand 14.8282 -17.8297
rfingers 7.12502
rthumb 39.69 -43.1486
lclavicle 4.75033e-014 6.55989e-015
lhumerus -37.8003 13.0574 86.7652
lradius 32.8148
lwrist -13.8293
lhand -7.03208 12.5747
lfingers 7.12502
lthumb 18.84 41.6823
rfemur -8.21148 5.18784 22.4301
rtibia 23.5479
rfoot -17.5746 -6.04499
rtoes -8.16805
lfemur -7.24396 -1.69009 -19.0716
ltibia 25.2914
lfoot -26.6235 9.22663
ltoes -10.1855
614
root 45.0214 17.7917 12.1913 -44.7844 88.1282 -46.3034
lowerback -2.74243 -1.77558 3.8982
upperback -1.39484 -2.44361 -0.642619
thorax -0.088296 -1.24077 -2.90391
lowerneck -4.35175 0.836686 -4.52307
upperneck 8.8761 1.14824 4.30273
head 3.62528 0.619198 2.29304
rclavicle 2.39287e-014 1.98785e-016
rhumerus -32.6013 -6.58462 -91.9434
rradius 25.9893
rwrist 33.1715
rhand 14.8042 -18.0864
rfingers 7.12502
rthumb 39.6673 -43.4119
lclavicle 2.39287e-014 1.98785e-016
lhumerus -37.7986 12.8457 86.9549
lradius 33.0251
lwrist -13.3156
lhand -7.14362 12.7513
lfingers 7.12502
lthumb 18.7327 41.8693
rfemur -8.213 5.13384 22.4171
rtibia 23.5372
rfoot -17.6298 -5.99392
rtoes -8.33283
lfemur -7.24621 -1.67208 -19.0758
ltibia 25.3084
lfoot -26.6623 9.23091
ltoes -10.2103
615
root 45.0272 17.7911 12.1923 -45.0623 88.0487 -46.5622
lowerback -2.75051 -1.77651 3.95853
upperback -1.39054 -2.44672 -0.632283
thorax -0.0817917 -1.24241 -2.92752
lowerneck -4.31392 0.900473 -4.49184
upperneck 8.8553 1.23463 4.25591
head 3.60592 0.660893 2.27368
rclavicle -4.07198e-014 -7.95139e-016
rhumerus -32.6018 -6.54075 -91.9785
rradius 26.0629
rwrist 33.1073
rhand 14.8168 -18.0412
rfingers 7.12502
rthumb 39.6792 -43.3632
lclavicle -4.07198e-014 -7.95139e-016
lhumerus -37.8009 13.0928 86.9225
lradius 32.9787
lwrist -13.4763
lhand -7.3154 13.1103
lfingers 7.12502
lthumb 18.5675 42.2442
rfemur -8.16783 5.05458 22.4894
rtibia 23.5144
rfoot -17.639 -5.89341
rtoes -8.30097
lfemur -7.2092 -1.64526 -18.9973
ltibia 25.331
lfoot -26.7096 9.21403
ltoes -10.1028
